<svg width="183" height="184" viewBox="0 0 183 184" fill="none" xmlns="http://www.w3.org/2000/svg">
<path d="M153.058 58.2667V145.283C152.675 145.092 152.1 144.9 151.525 144.517C151.525 144.517 151.334 144.517 151.142 144.325C150.567 144.133 149.801 143.75 149.226 143.558C148.46 143.367 147.886 143.175 147.119 142.792C146.353 142.6 145.778 142.408 145.012 142.217C144.246 142.025 143.671 141.833 142.905 141.833H142.713C142.139 141.833 141.564 141.642 140.798 141.642H140.606C140.032 141.642 139.265 141.45 138.691 141.45H138.499C137.925 141.45 137.158 141.45 136.392 141.45H107.658V67.0833C107.658 66.5083 107.658 66.125 107.658 65.7417C107.658 64.7833 107.658 63.825 107.467 63.0583C107.467 62.1 107.275 61.3333 107.275 60.375C107.275 59.6083 107.084 58.8417 107.084 58.2667C107.084 57.8833 106.892 57.6917 106.892 57.3083C106.892 56.925 106.892 56.7333 106.7 56.5417C106.7 56.1583 106.509 55.5833 106.509 55.0083C106.126 53.2833 105.743 51.75 105.36 50.2167C105.168 49.6417 104.976 49.0667 104.785 48.4917C104.785 48.3 104.593 48.1083 104.593 47.9167C104.402 47.5333 104.21 46.9583 104.019 46.575C103.636 45.6167 103.252 44.6583 102.869 43.7C102.678 43.125 102.295 42.55 102.103 41.975C101.72 41.2083 101.337 40.4417 100.954 39.675C100.571 39.1 100.379 38.525 99.9959 38.1417C99.6128 37.5667 99.2297 36.9917 98.8466 36.4167C97.1226 33.925 95.207 31.625 93.0998 29.5167C92.7167 29.1333 92.1421 28.5583 91.7589 28.175L90.9927 27.6C90.2265 27.025 89.6518 26.45 88.8856 25.875C88.3109 25.4917 87.7362 25.1083 87.3531 24.5333C86.97 24.15 86.5869 23.9583 86.2037 23.7667C85.6291 23.3833 84.8628 22.8083 84.2882 22.425C83.905 22.2333 83.5219 21.85 83.1388 21.6583C81.2232 20.3167 79.1161 19.1667 77.2005 18.2083C76.6258 18.0167 76.2427 17.6333 75.668 17.4417C74.1356 16.675 72.6031 15.9083 71.0706 15.3333C70.496 15.1417 70.1128 14.95 69.5382 14.7583C61.1096 11.3083 52.681 9.39167 45.4018 8.05C45.0187 7.85833 44.444 7.66667 44.0609 7.66667C43.6778 7.66667 43.1031 7.475 42.72 7.475C42.3369 7.475 41.7622 7.28333 41.3791 7.28333C40.996 7.28333 40.8044 7.09167 40.4213 7.09167C39.0804 6.9 37.7395 6.70833 36.5901 6.70833C35.8239 6.70833 35.0576 6.51667 34.483 6.51667C33.7167 6.51667 33.1421 6.325 32.5674 6.325C40.8044 2.3 49.8076 0 59.194 0H96.3563C110.34 0.575 122.983 5.75 132.752 14.1833C133.327 14.5667 133.71 15.1417 134.285 15.525C145.97 26.2583 153.058 41.5917 153.058 58.2667Z" fill="#315AFB"></path>
<path d="M6.89844 99.6665C8.04779 101.775 9.19714 103.883 10.3465 105.8C9.19714 103.883 8.04779 101.775 6.89844 99.6665Z" fill="#315AFB"></path>
<path d="M99.0357 45.0416C99.4188 45.6166 99.6104 46.3832 99.8019 46.9582C94.8214 41.7832 87.9253 38.7166 80.263 38.7166H72.7922C65.7045 39.0999 59.1916 41.7832 54.4026 46.3832L54.211 46.5749C48.4643 51.5582 44.8247 58.8416 44.8247 67.0832V116.917C44.8247 124.392 48.0812 131.483 53.2532 136.467C51.9123 136.083 50.763 135.508 49.4221 134.933C49.039 134.742 48.4643 134.55 48.0812 134.358C47.698 134.167 47.1234 133.975 46.7403 133.783C46.1656 133.592 45.5909 133.208 44.8247 133.017C43.6753 132.442 42.3344 131.867 40.9935 131.1C40.6104 130.908 40.2273 130.717 39.6526 130.333C39.0779 129.95 38.5032 129.567 37.737 129.183C36.9708 128.8 36.2045 128.225 35.4383 127.842C34.8636 127.458 34.289 127.075 33.9058 126.883C33.5227 126.692 33.1396 126.308 32.7565 126.117C29.8831 124.2 27.2013 122.092 24.5195 119.6C23.9448 119.025 23.3701 118.642 22.7955 118.067C21.8377 117.108 21.0714 116.342 20.1136 115.383C19.1558 114.425 18.3896 113.467 17.4318 112.317C16.6656 111.358 15.8993 110.4 15.1331 109.442C14.1753 108.292 13.4091 107.142 12.6429 105.8C12.4513 105.417 12.0682 105.033 11.8766 104.65C10.1526 101.775 8.62013 98.8999 7.08766 95.6416C6.32143 94.1082 5.74675 92.3832 5.17208 90.6582C4.98052 90.0832 4.78896 89.5082 4.5974 88.9332C4.40584 88.3582 4.21428 87.7832 4.02273 87.2082C3.83117 86.6332 3.63961 86.0582 3.44805 85.4832C2.68182 83.1832 2.10714 80.6916 1.72403 78.1999C1.53247 77.4332 1.53247 76.6666 1.34091 75.8999C1.14935 74.5582 0.957792 73.2166 0.766234 71.8749C0.574675 70.5332 0.383117 68.9999 0.383117 67.6582C0.383117 66.8916 0.191558 66.1249 0.191558 65.3582C0.191558 64.5916 0 63.8249 0 63.0582C0 62.4832 0 61.9082 0 61.3332C0 60.3749 0 59.6082 0 58.6499V58.4582C0.383117 38.7166 10.1526 20.5082 26.6266 9.7749C26.8182 9.7749 27.0097 9.7749 27.0097 9.7749C27.3929 9.7749 28.1591 9.7749 28.7338 9.7749C28.9253 9.7749 29.1169 9.7749 29.5 9.7749C29.8831 9.7749 30.0747 9.7749 30.2662 9.7749C30.6493 9.7749 30.8409 9.7749 31.224 9.7749C34.0974 9.96657 38.1201 10.3499 42.526 11.1166C43.2922 11.4999 43.8669 11.4999 44.4416 11.4999C45.0162 11.4999 45.5909 11.6916 46.3571 11.8832C47.1234 12.0749 47.8896 12.2666 48.6558 12.2666C51.1461 12.8416 53.6364 13.4166 56.1266 13.9916C57.0844 14.1832 58.0422 14.5666 59 14.7582C61.4902 15.5249 64.1721 16.4832 66.8539 17.4416C67.4286 17.6332 68.0032 17.8249 68.5779 18.2082C69.1526 18.3999 69.7273 18.7832 70.3019 18.9749C72.026 19.7416 73.9415 20.6999 75.6656 21.6582C76.2402 21.8499 76.8149 22.2332 77.3896 22.6166C77.9643 22.9999 78.5389 23.1916 79.1136 23.5749C81.987 25.2999 84.6688 27.2166 87.3506 29.5166C87.5422 29.7082 87.7337 29.8999 88.1169 30.0916C88.5 30.4749 88.8831 30.8582 89.4578 31.2416C90.4156 32.1999 91.5649 33.3499 92.5227 34.4999C93.4805 35.6499 94.4383 36.7999 95.3961 38.1416C95.7792 38.5249 95.9708 38.9082 96.1623 39.4832C96.9286 40.6332 97.6948 41.7832 98.2695 43.1249C98.461 43.8916 98.8441 44.4666 99.0357 45.0416Z" fill="#315AFB"></path>
<path d="M182.748 184H59.3848C27.5861 184 1.151 158.125 0.384766 126.5V88.1665C0.767882 89.3165 1.151 90.4665 1.53412 91.4248C1.72567 91.9998 1.91723 92.5748 2.10879 93.1498C3.06658 95.4498 3.83282 97.5582 4.98217 99.4748C5.36528 100.242 5.7484 101.008 6.13152 101.775C6.51464 102.733 7.08931 103.5 7.66399 104.458C8.0471 105.033 8.23866 105.608 8.62178 106.183C8.81334 106.567 9.00489 106.95 9.38801 107.333C9.77113 107.908 10.1542 108.292 10.3458 108.867C11.6867 110.975 13.2192 112.892 14.7516 114.617C15.5179 115.575 16.2841 116.342 17.0503 117.108C18.5828 118.642 19.9237 120.175 21.4562 121.517C21.6478 121.708 21.8393 121.9 22.0309 121.9C22.2224 122.092 22.6055 122.475 22.9887 122.667C23.1802 122.858 23.1802 122.858 23.3718 123.05C23.5633 123.242 23.5633 123.242 23.7549 123.433C24.138 123.817 24.7127 124.2 25.2874 124.583C26.2452 125.35 27.2029 126.117 28.1607 126.883C28.7354 127.267 29.1185 127.65 29.6932 128.033C32.1835 129.758 34.6737 131.483 36.9724 132.825C37.3555 133.017 37.9302 133.4 38.3133 133.592C38.888 133.975 39.6542 134.358 40.2289 134.55C40.9952 134.933 41.5698 135.317 42.3361 135.508C42.9107 135.892 43.677 136.083 44.4432 136.467C44.8263 136.658 45.2094 136.85 45.5926 137.042C46.3588 137.425 46.9335 137.617 47.5081 138C48.2744 138.383 49.0406 138.575 49.8068 138.958C50.5731 139.342 51.3393 139.533 52.1055 139.917C52.6802 140.108 53.4465 140.3 54.0211 140.683C54.2127 140.683 54.2127 140.683 54.4042 140.683C55.5536 141.067 56.5114 141.45 57.6607 141.833C58.0439 142.025 58.6185 142.025 59.0016 142.217C60.7257 142.792 62.2581 143.175 63.7906 143.558C64.7484 143.75 65.7062 143.942 66.664 144.133C66.664 144.133 66.664 144.133 66.8555 144.133C68.9627 144.708 71.0698 145.092 73.177 145.283C74.3263 145.283 79.1153 145.283 104.209 145.283H137.349C143.479 145.283 149.417 147.008 154.972 150.267C158.037 151.992 160.911 154.292 163.593 156.592C163.784 156.783 163.976 156.783 163.976 156.975C173.745 166.75 180.258 179.017 182.748 184Z" fill="#315AFB"></path>
</svg>