<svg width="590" height="184" viewBox="0 0 590 184" fill="none" xmlns="http://www.w3.org/2000/svg">
<g clip-path="url(#clip0_3_412)">
<path d="M152.673 58.2667V145.283C152.29 145.092 151.715 144.9 151.14 144.517C151.14 144.517 150.949 144.517 150.757 144.325C150.183 144.133 149.416 143.75 148.842 143.558C148.075 143.367 147.501 143.175 146.735 142.792C145.968 142.6 145.394 142.408 144.627 142.217C143.861 142.025 143.287 141.833 142.52 141.833H142.329C141.754 141.833 141.179 141.642 140.413 141.642H140.222C139.647 141.642 138.881 141.45 138.306 141.45H138.114C137.54 141.45 136.774 141.45 136.007 141.45H107.274V67.0833C107.274 66.5083 107.274 66.125 107.274 65.7417C107.274 64.7833 107.274 63.825 107.082 63.0583C107.082 62.1 106.89 61.3333 106.89 60.375C106.89 59.6083 106.699 58.8417 106.699 58.2667C106.699 57.8833 106.507 57.6917 106.507 57.3083C106.507 56.925 106.507 56.7333 106.316 56.5417C106.316 56.1583 106.124 55.5833 106.124 55.0083C105.741 53.2833 105.358 51.75 104.975 50.2167C104.783 49.6417 104.592 49.0667 104.4 48.4917C104.4 48.3 104.209 48.1083 104.209 47.9167C104.017 47.5333 103.825 46.9583 103.634 46.575C103.251 45.6167 102.868 44.6583 102.485 43.7C102.293 43.125 101.91 42.55 101.718 41.975C101.335 41.2083 100.952 40.4417 100.569 39.675C100.186 39.1 99.9943 38.525 99.6112 38.1417C99.2281 37.5667 98.845 36.9917 98.4618 36.4167C96.7378 33.925 94.8222 31.625 92.7151 29.5167C92.332 29.1333 91.7573 28.5583 91.3742 28.175L90.6079 27.6C89.8417 27.025 89.267 26.45 88.5008 25.875C87.9261 25.4917 87.3514 25.1083 86.9683 24.5333C86.5852 24.15 86.2021 23.9583 85.819 23.7667C85.2443 23.3833 84.4781 22.8083 83.9034 22.425C83.5203 22.2333 83.1372 21.85 82.754 21.6583C80.8385 20.3167 78.7313 19.1667 76.8157 18.2083C76.2411 18.0167 75.8579 17.6333 75.2833 17.4417C73.7508 16.675 72.2183 15.9083 70.6859 15.3333C70.1112 15.1417 69.7281 14.95 69.1534 14.7583C60.7248 11.3083 52.2963 9.39167 45.017 8.05C44.6339 7.85833 44.0592 7.66667 43.6761 7.66667C43.293 7.66667 42.7183 7.475 42.3352 7.475C41.9521 7.475 41.3774 7.28333 40.9943 7.28333C40.6112 7.28333 40.4196 7.09167 40.0365 7.09167C38.6956 6.9 37.3547 6.70833 36.2053 6.70833C35.4391 6.70833 34.6729 6.51667 34.0982 6.51667C33.332 6.51667 32.7573 6.325 32.1826 6.325C40.4196 2.3 49.4229 0 58.8092 0H95.9716C109.955 0.575 122.598 5.75 132.368 14.1833C132.942 14.5667 133.325 15.1417 133.9 15.525C145.585 26.2583 152.673 41.5917 152.673 58.2667Z" fill="#315AFB"></path>
<path d="M6.51367 99.6665C7.66302 101.775 8.81237 103.883 9.96172 105.8C8.81237 103.883 7.66302 101.775 6.51367 99.6665Z" fill="#315AFB"></path>
<path d="M98.6504 45.0416C99.0336 45.6166 99.2251 46.3832 99.4167 46.9582C94.4362 41.7832 87.5401 38.7166 79.8777 38.7166H72.4069C65.3193 39.0999 58.8063 41.7832 54.0173 46.3832L53.8258 46.5749C48.079 51.5582 44.4394 58.8416 44.4394 67.0832V116.917C44.4394 124.392 47.6959 131.483 52.868 136.467C51.5271 136.083 50.3777 135.508 49.0368 134.933C48.6537 134.742 48.079 134.55 47.6959 134.358C47.3128 134.167 46.7381 133.975 46.355 133.783C45.7803 133.592 45.2057 133.208 44.4394 133.017C43.2901 132.442 41.9492 131.867 40.6082 131.1C40.2251 130.908 39.842 130.717 39.2673 130.333C38.6927 129.95 38.118 129.567 37.3518 129.183C36.5855 128.8 35.8193 128.225 35.0531 127.842C34.4784 127.458 33.9037 127.075 33.5206 126.883C33.1375 126.692 32.7544 126.308 32.3712 126.117C29.4979 124.2 26.816 122.092 24.1342 119.6C23.5595 119.025 22.9849 118.642 22.4102 118.067C21.4524 117.108 20.6862 116.342 19.7284 115.383C18.7706 114.425 18.0044 113.467 17.0466 112.317C16.2803 111.358 15.5141 110.4 14.7479 109.442C13.7901 108.292 13.0238 107.142 12.2576 105.8C12.066 105.417 11.6829 105.033 11.4914 104.65C9.76734 101.775 8.23487 98.8999 6.70241 95.6416C5.93617 94.1082 5.3615 92.3832 4.78682 90.6582C4.59526 90.0832 4.40371 89.5082 4.21215 88.9332C4.02059 88.3582 3.82903 87.7832 3.63747 87.2082C3.44591 86.6332 3.25436 86.0582 3.0628 85.4832C2.29656 83.1832 1.72189 80.6916 1.33877 78.1999C1.14721 77.4332 1.14721 76.6666 0.955655 75.8999C0.764096 74.5582 0.572538 73.2166 0.38098 71.8749C0.189421 70.5332 -0.00213709 68.9999 -0.00213709 67.6582C-0.00213709 66.8916 -0.193696 66.1249 -0.193696 65.3582C-0.193696 64.5916 -0.385254 63.8249 -0.385254 63.0582C-0.385254 62.4832 -0.385254 61.9082 -0.385254 61.3332C-0.385254 60.3749 -0.385254 59.6082 -0.385254 58.6499V58.4582C-0.00213709 38.7166 9.76734 20.5082 26.2414 9.7749C26.4329 9.7749 26.6245 9.7749 26.6245 9.7749C27.0076 9.7749 27.7738 9.7749 28.3485 9.7749C28.5401 9.7749 28.7316 9.7749 29.1147 9.7749C29.4979 9.7749 29.6894 9.7749 29.881 9.7749C30.2641 9.7749 30.4557 9.7749 30.8388 9.7749C33.7121 9.96657 37.7349 10.3499 42.1407 11.1166C42.9069 11.4999 43.4816 11.4999 44.0563 11.4999C44.631 11.4999 45.2057 11.6916 45.9719 11.8832C46.7381 12.0749 47.5044 12.2666 48.2706 12.2666C50.7608 12.8416 53.2511 13.4166 55.7414 13.9916C56.6992 14.1832 57.6569 14.5666 58.6147 14.7582C61.105 15.5249 63.7868 16.4832 66.4686 17.4416C67.0433 17.6332 67.618 17.8249 68.1927 18.2082C68.7673 18.3999 69.342 18.7832 69.9167 18.9749C71.6407 19.7416 73.5563 20.6999 75.2803 21.6582C75.855 21.8499 76.4297 22.2332 77.0043 22.6166C77.579 22.9999 78.1537 23.1916 78.7284 23.5749C81.6017 25.2999 84.2836 27.2166 86.9654 29.5166C87.1569 29.7082 87.3485 29.8999 87.7316 30.0916C88.1147 30.4749 88.4978 30.8582 89.0725 31.2416C90.0303 32.1999 91.1797 33.3499 92.1375 34.4999C93.0952 35.6499 94.053 36.7999 95.0108 38.1416C95.394 38.5249 95.5855 38.9082 95.7771 39.4832C96.5433 40.6332 97.3095 41.7832 97.8842 43.1249C98.0758 43.8916 98.4589 44.4666 98.6504 45.0416Z" fill="#315AFB"></path>
<path d="M182.364 184H59C27.2013 184 0.766234 158.125 0 126.5V88.1665C0.383117 89.3165 0.766234 90.4665 1.14935 91.4248C1.34091 91.9998 1.53247 92.5748 1.72403 93.1498C2.68182 95.4498 3.44805 97.5582 4.5974 99.4748C4.98052 100.242 5.36364 101.008 5.74675 101.775C6.12987 102.733 6.70455 103.5 7.27922 104.458C7.66234 105.033 7.8539 105.608 8.23701 106.183C8.42857 106.567 8.62013 106.95 9.00325 107.333C9.38636 107.908 9.76948 108.292 9.96104 108.867C11.3019 110.975 12.8344 112.892 14.3669 114.617C15.1331 115.575 15.8993 116.342 16.6656 117.108C18.1981 118.642 19.539 120.175 21.0714 121.517C21.263 121.708 21.4545 121.9 21.6461 121.9C21.8377 122.092 22.2208 122.475 22.6039 122.667C22.7955 122.858 22.7955 122.858 22.987 123.05C23.1786 123.242 23.1786 123.242 23.3701 123.433C23.7532 123.817 24.3279 124.2 24.9026 124.583C25.8604 125.35 26.8182 126.117 27.776 126.883C28.3506 127.267 28.7338 127.65 29.3084 128.033C31.7987 129.758 34.289 131.483 36.5877 132.825C36.9708 133.017 37.5455 133.4 37.9286 133.592C38.5032 133.975 39.2695 134.358 39.8442 134.55C40.6104 134.933 41.1851 135.317 41.9513 135.508C42.526 135.892 43.2922 136.083 44.0584 136.467C44.4416 136.658 44.8247 136.85 45.2078 137.042C45.974 137.425 46.5487 137.617 47.1234 138C47.8896 138.383 48.6558 138.575 49.4221 138.958C50.1883 139.342 50.9545 139.533 51.7208 139.917C52.2955 140.108 53.0617 140.3 53.6364 140.683C53.8279 140.683 53.8279 140.683 54.0195 140.683C55.1688 141.067 56.1266 141.45 57.276 141.833C57.6591 142.025 58.2338 142.025 58.6169 142.217C60.3409 142.792 61.8734 143.175 63.4058 143.558C64.3636 143.75 65.3214 143.942 66.2792 144.133C66.2792 144.133 66.2792 144.133 66.4708 144.133C68.5779 144.708 70.6851 145.092 72.7922 145.283C73.9416 145.283 78.7305 145.283 103.825 145.283H136.964C143.094 145.283 149.032 147.008 154.588 150.267C157.653 151.992 160.526 154.292 163.208 156.592C163.399 156.783 163.591 156.783 163.591 156.975C173.36 166.75 179.873 179.017 182.364 184Z" fill="#315AFB"></path>
<path d="M269.715 112.508L268.182 110.975C267.799 110.592 267.225 110.592 266.65 111.167C261.095 115.767 254.965 119.025 246.919 119.025C230.637 119.025 217.802 105.8 217.802 89.7001C217.802 73.6001 230.637 60.1835 246.919 60.1835C254.582 60.1835 261.286 63.0585 266.65 67.8501C267.225 68.4251 267.608 68.4251 268.182 67.8501L269.715 66.3168C270.098 65.9335 270.098 65.1668 269.523 64.5918C263.393 59.0335 256.306 55.9668 246.919 55.9668C228.338 55.9668 213.205 70.9168 213.205 89.7001C213.205 108.483 228.338 123.242 246.919 123.242C255.156 123.242 263.393 120.367 269.715 114.233C270.29 113.467 270.29 112.7 269.715 112.508Z" fill="#315AFB"></path>
<path d="M323.734 55.9668C305.153 55.9668 290.211 70.9168 290.211 89.7001C290.211 108.483 305.153 123.242 323.734 123.242C342.507 123.242 357.448 108.483 357.448 89.7001C357.448 70.9168 342.507 55.9668 323.734 55.9668ZM323.734 118.833C307.452 118.833 294.234 105.8 294.234 89.5085C294.234 73.2168 307.452 59.9918 323.734 59.9918C340.017 59.9918 353.234 73.2168 353.234 89.5085C353.234 105.8 340.017 118.833 323.734 118.833Z" fill="#315AFB"></path>
<path d="M403.614 56.9248H383.884C383.309 56.9248 382.734 57.4998 382.734 58.0748V120.941C382.734 121.516 383.309 122.091 383.884 122.091H403.614C421.621 122.091 436.371 107.525 436.371 89.3165C436.371 71.4915 421.621 56.9248 403.614 56.9248ZM402.848 118.066H387.14V60.7581H402.848C419.13 60.7581 431.773 73.2165 431.773 89.3165C431.773 105.608 419.13 118.066 402.848 118.066Z" fill="#315AFB"></path>
<path d="M500.351 60.7581C500.926 60.7581 501.5 60.1831 501.5 59.6081V58.0748C501.5 57.4998 500.926 56.9248 500.351 56.9248H462.997C462.422 56.9248 461.848 57.4998 461.848 58.0748V120.941C461.848 121.516 462.422 122.091 462.997 122.091H500.351C500.926 122.091 501.5 121.516 501.5 120.941V119.408C501.5 118.833 500.926 118.258 500.351 118.258H466.253V90.6581H495.753C496.328 90.6581 496.903 90.0831 496.903 89.5081V87.9748C496.903 87.3998 496.328 86.8248 495.753 86.8248H466.253V60.7581H500.351Z" fill="#315AFB"></path>
<path d="M590 89.5082C590 70.9166 575.059 55.7749 556.286 55.7749C537.705 55.7749 522.763 70.7249 522.763 89.5082C522.763 108.292 537.705 123.05 556.286 123.05C559.159 123.05 562.224 122.667 564.714 122.092L575.059 139.15C575.442 139.917 576.016 140.108 576.208 140.108H579.273C580.039 140.108 580.231 139.15 579.848 138.767L568.737 120.75C581.38 115.767 590 103.883 590 89.5082ZM556.286 118.833C540.003 118.833 526.786 105.8 526.786 89.5082C526.786 73.2166 540.003 59.9916 556.286 59.9916C572.568 59.9916 585.786 73.2166 585.786 89.5082C585.977 105.8 572.76 118.833 556.286 118.833Z" fill="#315AFB"></path>
</g>
<defs>
<clipPath id="clip0_3_412">
<rect width="590" height="184" fill="white"></rect>
</clipPath>
</defs>
</svg>